<svg xmlns="http://www.w3.org/2000/svg" viewBox="0 0 200 150" fill="#000">
  <!-- Q: 粗六边形环 + 尾巴 -->
  <path fill-rule="evenodd" d="
    M5,65 L30,0 L80,0 L105,65 L80,130 L30,130 Z
    M33,65 L44,36.5 L66,36.5 L77,65 L66,93.5 L44,93.5 Z"/>
  <path d="M60,85 L110,140 L100,140 L50,90 Z"/>
  <!-- 8 上半 -->
  <path fill-rule="evenodd" d="
    M120,35 L137.5,0 L172.5,0 L190,35 L172.5,70 L137.5,70 Z
    M142,35 L148.5,23.74 L161.5,23.74 L168,35 L161.5,46.26 L148.5,46.26 Z"/>
  <!-- 8 下半 -->
  <path fill-rule="evenodd" d="
    M120,105 L137.5,70 L172.5,70 L190,105 L172.5,140 L137.5,140 Z
    M142,105 L148.5,93.74 L161.5,93.74 L168,105 L161.5,116.26 L148.5,116.26 Z"/>
</svg>
